<svg width="1240.000000" height="1240.000000" viewBox="0 0 1240 1240" fill="none" xmlns="http://www.w3.org/2000/svg" xmlns:xlink="http://www.w3.org/1999/xlink">
	<desc>
			Created with Pixso.
	</desc>
	<defs/>
	<rect id="画板 2" rx="200.000000" width="1240.000000" height="1240.000000" fill="#000000" fill-opacity="0"/>
	<path id="矩形 2" d="M200 0L1040 0C1150.46 0 1240 89.54 1240 200L1240 1040C1240 1150.46 1150.46 1240 1040 1240L200 1240C89.54 1240 0 1150.46 0 1040L0 200C0 89.54 89.54 0 200 0Z" fill="#000000" fill-opacity="1.000000" fill-rule="evenodd"/>
	<path id="矩形 3" d="M216.77 265L557 265L557 335.64C554.7 417.02 552.38 561.33 507.25 564.93C505.94 565.03 504.6 565.02 503.22 564.88C491.76 563.75 414.26 580.6 396.66 414.13L320.99 414.13L238.27 414.13L194.27 414.13C194.27 414.13 210.11 448.81 216.77 341.3L216.77 341.3L216.77 341.3L216.77 303.15L216.78 265L216.77 265ZM238.27 414.13L238.27 414.13L238.27 414.13L238.27 414.13L238.27 414.13L238.27 414.13L238.27 414.13L238.27 414.13L238.27 414.13L238.27 414.13L238.27 414.13L238.27 414.13L238.27 414.13L238.27 414.13ZM194.27 414.13L194.27 414.13C184.08 413.84 194.27 414.13 194.27 414.13L194.27 414.13L194.27 414.13L194.27 414.13L194.27 414.13L194.27 414.13L194.27 414.13L194.27 414.13L194.27 414.13L194.27 414.13L194.27 414.13L194.27 414.13L194.27 414.13L194.27 414.13L194.27 414.13Z" fill="#FFD928" fill-opacity="1.000000" fill-rule="evenodd"/>
	<path id="矩形 3" d="M238.27 414.13L238.27 414.13L238.27 414.13L238.27 414.13L238.27 414.13L238.27 414.13L238.27 414.13L238.27 414.13L238.27 414.13L238.27 414.13L238.27 414.13L238.27 414.13L238.27 414.13L238.27 414.13Z" fill="#FFD928" fill-opacity="1.000000" fill-rule="evenodd"/>
	<linearGradient x1="307.000000" y1="265.000000" x2="307.000000" y2="565.000000" id="paint_linear_5_282_0" gradientUnits="userSpaceOnUse">
		<stop offset="0.912003" stop-color="#D5B003"/>
		<stop offset="1.000000" stop-color="#7C6C24"/>
	</linearGradient>
	<path id="矩形 3" d="M184.64 561.29C171.39 563.76 78.11 564.93 57 414.13C194.27 414.13 194.27 414.13 194.27 414.13L194.27 414.13L194.27 414.13L194.27 414.13L194.27 414.13L238.27 414.13L238.27 414.13L320.99 414.13L396.66 414.13C414.26 580.6 491.76 563.75 503.22 564.88L184.64 561.29Z" fill="url(#paint_linear_5_282_0)" fill-opacity="1.000000" fill-rule="evenodd"/>
	<path id="矩形 3" d="M747.77 265L1088 265L1088 335.64C1085.69 417.02 1083.39 561.33 1038.25 564.93C1036.93 565.03 1035.6 565.02 1034.23 564.88C1022.76 563.75 945.26 580.6 927.66 414.13L851.99 414.13L769.27 414.13L725.27 414.13C725.27 414.13 741.11 448.81 747.77 341.3L747.77 341.3L747.77 341.3L747.77 303.15L747.78 265L747.77 265ZM769.27 414.13L769.27 414.13L769.27 414.13L769.27 414.13L769.27 414.13L769.27 414.13L769.27 414.13L769.27 414.13L769.27 414.13L769.27 414.13L769.27 414.13L769.27 414.13L769.27 414.13L769.27 414.13ZM725.27 414.13L725.27 414.13C715.08 413.84 725.27 414.13 725.27 414.13L725.27 414.13L725.27 414.13L725.27 414.13L725.27 414.13L725.27 414.13L725.27 414.13L725.27 414.13L725.27 414.13L725.27 414.13L725.27 414.13L725.27 414.13L725.27 414.13L725.27 414.13L725.27 414.13Z" fill="#FFD928" fill-opacity="1.000000" fill-rule="evenodd"/>
	<path id="矩形 3" d="M769.27 414.13L769.27 414.13L769.27 414.13L769.27 414.13L769.27 414.13L769.27 414.13L769.27 414.13L769.27 414.13L769.27 414.13L769.27 414.13L769.27 414.13L769.27 414.13L769.27 414.13L769.27 414.13Z" fill="#FFD928" fill-opacity="1.000000" fill-rule="evenodd"/>
	<linearGradient x1="838.000000" y1="265.000000" x2="838.000000" y2="565.000000" id="paint_linear_5_192_0" gradientUnits="userSpaceOnUse">
		<stop offset="0.912003" stop-color="#D5B003"/>
		<stop offset="1.000000" stop-color="#7C6C24"/>
	</linearGradient>
	<path id="矩形 3" d="M715.64 561.29C702.39 563.76 609.11 564.93 588 414.13C725.27 414.13 725.27 414.13 725.27 414.13L725.27 414.13L725.27 414.13L725.27 414.13L725.27 414.13L769.27 414.13L769.27 414.13L851.99 414.13L927.66 414.13C945.26 580.6 1022.76 563.75 1034.23 564.88L715.64 561.29Z" fill="url(#paint_linear_5_192_0)" fill-opacity="1.000000" fill-rule="evenodd"/>
	<path id="矩形 3" d="M466.77 765L807 765L807 835.64C804.7 917.02 802.38 1061.32 757.25 1064.93C755.94 1065.04 754.6 1065.02 753.22 1064.89C741.76 1063.75 664.26 1080.61 646.66 914.13L570.99 914.13L488.27 914.13L444.27 914.13C444.27 914.13 460.11 948.81 466.77 841.3L466.77 841.3L466.77 841.3L466.77 803.15L466.78 765L466.77 765ZM488.27 914.13L488.27 914.13L488.27 914.13L488.27 914.13L488.27 914.13L488.27 914.13L488.27 914.13L488.27 914.13L488.27 914.13L488.27 914.13L488.27 914.13L488.27 914.13L488.27 914.13L488.27 914.13ZM444.27 914.13L444.27 914.13C434.08 913.84 444.27 914.13 444.27 914.13L444.27 914.13L444.27 914.13L444.27 914.13L444.27 914.13L444.27 914.13L444.27 914.13L444.27 914.13L444.27 914.13L444.27 914.13L444.27 914.13L444.27 914.13L444.27 914.13L444.27 914.13L444.27 914.13Z" fill="#FFD928" fill-opacity="1.000000" fill-rule="evenodd"/>
	<path id="矩形 3" d="M488.27 914.13L488.27 914.13L488.27 914.13L488.27 914.13L488.27 914.13L488.27 914.13L488.27 914.13L488.27 914.13L488.27 914.13L488.27 914.13L488.27 914.13L488.27 914.13L488.27 914.13L488.27 914.13Z" fill="#FFD928" fill-opacity="1.000000" fill-rule="evenodd"/>
	<linearGradient x1="557.000000" y1="765.000000" x2="557.000000" y2="1065.000000" id="paint_linear_5_272_0" gradientUnits="userSpaceOnUse">
		<stop offset="0.912003" stop-color="#D5B003"/>
		<stop offset="1.000000" stop-color="#7C6C24"/>
	</linearGradient>
	<path id="矩形 3" d="M434.64 1061.29C421.39 1063.76 328.11 1064.93 307 914.13C444.27 914.13 444.27 914.13 444.27 914.13L444.27 914.13L444.27 914.13L444.27 914.13L444.27 914.13L488.27 914.13L488.27 914.13L570.99 914.13L646.66 914.13C664.26 1080.61 741.76 1063.75 753.22 1064.89L434.64 1061.29Z" fill="url(#paint_linear_5_272_0)" fill-opacity="1.000000" fill-rule="evenodd"/>
</svg>
